<svg width="77" height="38" viewBox="0 0 77 38" fill="none" xmlns="http://www.w3.org/2000/svg">
<g clip-path="url(#clip0_2008_2)">
<path d="M5.344 12.176C5.55733 13.7973 5.73867 15.3653 5.888 16.88C6.03733 18.3733 6.112 19.9627 6.112 21.648V30H1.664V7.824H8.224L13.856 25.584C13.344 22.2987 13.088 19.2053 13.088 16.304V7.824H17.536V30H11.168L5.344 12.176ZM27.4115 16.912H35.0915V20.56H27.4115V26.224H36.6595V30H22.1635V7.824H36.6595L36.1155 11.568H27.4115V16.912ZM50.663 20.656H45.287V30H40.039V7.824H45.287V16.336H50.663V7.824H55.911V30H50.663V20.656ZM75.5465 25.808L75.0025 30H58.8105V26.064L69.3385 11.888H59.9625V7.824H75.2905V11.792L64.9865 25.808H75.5465Z" fill="white"/>
</g>
<defs>
<clipPath id="clip0_2008_2">
<rect width="77" height="38" fill="white"/>
</clipPath>
</defs>
</svg>
