<svg width="106" height="38" viewBox="0 0 106 38" fill="none" xmlns="http://www.w3.org/2000/svg">
<g clip-path="url(#clip0_2008_2)">
<path d="M5.344 12.176C5.55733 13.7973 5.73867 15.3653 5.888 16.88C6.03733 18.3733 6.112 19.9627 6.112 21.648V30H1.664V7.824H8.224L13.856 25.584C13.344 22.2987 13.088 19.2053 13.088 16.304V7.824H17.536V30H11.168L5.344 12.176ZM27.4115 16.912H35.0915V20.56H27.4115V26.224H36.6595V30H22.1635V7.824H36.6595L36.1155 11.568H27.4115V16.912ZM50.663 20.656H45.287V30H40.039V7.824H45.287V16.336H50.663V7.824H55.911V30H50.663V20.656ZM75.5465 25.808L75.0025 30H58.8105V26.064L69.3385 11.888H59.9625V7.824H75.2905V11.792L64.9865 25.808H75.5465ZM79.774 28.48C79.774 28 79.9447 27.584 80.286 27.232C80.638 26.88 81.0593 26.704 81.55 26.704C82.0407 26.704 82.4567 26.88 82.798 27.232C83.15 27.584 83.326 28 83.326 28.48C83.326 28.9707 83.15 29.392 82.798 29.744C82.4567 30.096 82.0407 30.272 81.55 30.272C81.0593 30.272 80.638 30.096 80.286 29.744C79.9447 29.392 79.774 28.9707 79.774 28.48ZM92.2638 17.056C92.6904 17.056 93.0424 17.1947 93.3198 17.472C93.6078 17.7387 93.7518 18.0747 93.7518 18.48C93.7518 18.8853 93.6078 19.2267 93.3198 19.504C93.0424 19.7707 92.6904 19.904 92.2638 19.904C91.8158 19.904 91.4531 19.7707 91.1758 19.504C90.8984 19.2373 90.7598 18.896 90.7598 18.48C90.7598 18.0747 90.8984 17.7387 91.1758 17.472C91.4638 17.1947 91.8264 17.056 92.2638 17.056ZM93.8958 27.536C93.8958 28.7413 93.6718 29.7387 93.2238 30.528C92.7758 31.328 92.1091 31.9627 91.2238 32.432C90.3491 32.912 89.2238 33.2853 87.8478 33.552L87.4638 31.616C88.3704 31.4133 89.1011 31.1627 89.6558 30.864C90.2211 30.5653 90.6478 30.1653 90.9358 29.664C91.2238 29.152 91.3678 28.496 91.3678 27.696V23.232H88.3278V21.504H93.8958V27.536ZM100.466 28.464C100.903 28.464 101.244 28.4 101.49 28.272C101.746 28.1333 101.874 27.9307 101.874 27.664C101.874 27.472 101.82 27.3173 101.714 27.2C101.618 27.0827 101.431 26.9707 101.154 26.864C100.876 26.7467 100.444 26.608 99.8575 26.448C99.0042 26.224 98.3535 25.9147 97.9055 25.52C97.4575 25.1147 97.2335 24.56 97.2335 23.856C97.2335 23.0773 97.5535 22.4427 98.1935 21.952C98.8442 21.4613 99.7508 21.216 100.914 21.216C102.258 21.216 103.404 21.5627 104.354 22.256L103.346 23.744C102.567 23.264 101.783 23.024 100.994 23.024C100.578 23.024 100.268 23.0773 100.066 23.184C99.8735 23.2907 99.7775 23.456 99.7775 23.68C99.7775 23.8293 99.8255 23.9573 99.9215 24.064C100.028 24.16 100.22 24.2613 100.498 24.368C100.786 24.4747 101.212 24.608 101.778 24.768C102.386 24.9387 102.882 25.1253 103.266 25.328C103.66 25.5307 103.964 25.8027 104.178 26.144C104.391 26.4853 104.498 26.9227 104.498 27.456C104.498 28.0533 104.316 28.5653 103.954 28.992C103.591 29.4187 103.106 29.7387 102.498 29.952C101.89 30.1653 101.218 30.272 100.482 30.272C99.6922 30.272 98.9775 30.16 98.3375 29.936C97.6975 29.712 97.1535 29.3973 96.7055 28.992L97.9695 27.568C98.7375 28.1653 99.5695 28.464 100.466 28.464Z" fill="white"/>
</g>
<defs>
<clipPath id="clip0_2008_2">
<rect width="106" height="38" fill="white"/>
</clipPath>
</defs>
</svg>
